<?xml version="1.0" encoding="UTF-8"?>
<svg id="Layer_2" data-name="Layer 2" xmlns="http://www.w3.org/2000/svg" viewBox="0 0 352.71 678.47">
  <defs>
    <style>
      .cls-1 {
        fill: #dd653a;
      }

      .cls-2 {
        fill: #84895b;
      }
    </style>
  </defs>
  <g id="Layer_1-2" data-name="Layer 1">
    <g>
      <g>
        <path class="cls-2" d="M190.1,363.2l-9.95,11.86c-7.13,8.5-12.36,18.36-14.93,29.47l-18.93,81.88c4.42-4.36,5.63-9.79,7.24-14.78,6.18-19.19,14.58-36.41,26.08-52.99,11.15-16.06,22.47-31.33,37.46-43.94,24.3-20.43,51.4-36.2,82.62-42.99l20.6-4.48,22.44-2.61c3.51-.41,12.32,4.46,9.42,8.45-7.93,10.9-19.87,18.19-31.43,25.16-29.69,17.88-55.14,39.5-80.7,62.72l-14.51,13.18-20.09,20.03-11.04,12.35-12.99,16.02c-16.24,20.03-31.03,49.91-36.71,75.32-2.85,13.93-7.56,26.71-8.27,43.06l39.68-53.21,5.74-6.83,26.91-28.1,16.11-15.95c22.74-22.51,46.98-42.47,74.26-59.44,12.59-7.84,32.56-21.81,42.44-17.34,2.78,1.26,3.17,5.2,1.8,7.74-9.58,17.7-21.6,32.95-34.4,48.31l-17.65,21.18c-14.27,17.12-28.51,33.61-45.96,47.74l-47.39,38.34c-23.34,18.89-44.67,38.67-62.96,62.57l-23.92,31.26c-1.85,2.42-8.07.97-9.67-.74s-2.51-4.62-1.76-7.85l12.29-52.79,9.5-48.59c6.63-52.43,3.1-96.66-15.41-146.58-13.06-35.21-29.48-68.51-51.11-99.04l-18.42-26.01c-11.95-16.87-21.41-34.94-30.08-53.81L.4,223.96c-.94-2.79-.32-5.76,2.61-6.84,5.11-1.9,10.1-.51,14.57,2.28,19.72,12.33,35.69,28.19,50.83,45.68,25.44,29.38,50.46,81.78,56.73,119.99l11,67.05c4.5-11.8,4.6-23.88,6.39-36.37,4.8-33.57,4.74-62.87-6.87-94.59l10.64,1.54c3.51.47,6.7-.61,8.02-4l3.47-8.92c3.26-12.95,7.8-24.9,15.45-35.99l6.65-9.64,7.64-10.29,17.58-19.65,10.4-8.99c3.18-2.75,7.08-4.51,9.53-8.47.67-1.09,3.98-2.13,4.56-1.16,4.34,8.4,1.54,17.42-2.63,25.25-8.15,15.29-17.13,28.97-27.8,42.68l-5.38,8.22-10.99,18.21-7.76,14.3c-2.08,3.84-2.34,6.68-2.92,11.04-1.7,12.79,5.72,24.73,18,27.91ZM135.65,600.42l-.04.9v.93l.04.9.04-.9v-.93l-.04-.9Z"/>
        <path class="cls-1" d="M190.1,363.2c-12.28-3.18-19.7-15.12-18-27.91.58-4.37.84-7.2,2.92-11.04l7.76-14.3,10.99-18.21,5.38-8.22c10.67-13.71,19.66-27.39,27.8-42.68,4.17-7.82,6.97-16.84,2.63-25.25-.58-.97-3.88.08-4.56,1.16-2.45,3.96-6.34,5.72-9.53,8.47l-10.4,8.99-17.58,19.65-7.64,10.29-6.65,9.64c-7.65,11.09-12.19,23.04-15.45,35.99l-3.47,8.92c-1.32,3.39-4.51,4.47-8.02,4l-10.64-1.54c-2.48-6.77-12.34-17-19.29-32.27l-21.18-46.55-23.43-49.48-4.86-16.36c-.6-2,.51-4.26,1.68-4.96,3.07-1.85,11.98,1.92,17.79,6.62l18.38,14.85c5.88,4.75,10.18,11.3,16.92,14.13l.95-1.65-12.05-28.07-8.24-20.6-12.65-38.57c-.88-2.67.13-5.5,1.75-6.72,4.25-3.21,15.34,1.31,20.2,5.43l15.76,13.37c6.51,5.52,10.49,13.56,19.08,18.04l-8.69-38.27-6.87-31.78c-.97-4.5,1.15-11.75,5.47-13.44,4.92-1.93,9,2.86,12,5.47l12.84,11.18-1.33-16.95c-1.35-17.12,2.56-43.98,12.67-37.62,4.61,2.9,8.58,6.33,10.89,11.3l9.33,20.04,10-30.79c3.68-11.34,17.91-30.14,21.49-27.2,4.75,3.9,4.92,11.45,4.64,17.24l-1.36,27.71-2.69,22.76,26.05-27.01c1.96-2.03,9.39-4.28,10.46-.92,3.21,10.06-.14,20.75-3.19,30.24l-6.75,20.96-9.12,20.66c6.46-2.98,9.62-8.11,14.74-12.19,6.37-5.08,11.8-10.61,19.52-13.75,1.91-.78,5.6-.12,6.03,2.12,1.04,5.42-.26,10.77-2.22,15.66l-13.42,33.47c-5.34,13.31-11.52,25.53-18.8,37.81-1.53,2.58-3.12,5.06-2.59,9.01,3.97-1,6.85-3.29,10.07-5.7,12.12-9.06,33.84-23.52,40.71-16.67,5.59,5.57-1.1,15.14-7.58,25.02l-20.21,30.77-15.32,23.39-9.79,18.54c4.44-.46,6.63-2.96,9.7-4.78l24.33-14.37c12.75-7.53,29.17-11.58,29.27-3.17.05,4.9-2.58,9.6-5.59,13.08l-19.84,22.97-26.37,27.53-33.14,34.39-6.27,7.57c-4.65,5.62-9,11.18-15.49,14.97-3.22,1.88-7.6,2.8-9.93,5.58ZM179.17,184.59l5.28,24.97c1.08,5.11-.04,9.99,1.83,14.97,1.18,3.14,1.15,6.32,1.06,9.67,10.11-5.85,12.37-15.23,14.49-25.87l6.34-31.8c2.26-11.34,2.7-21.66,3.16-33.17.32-8.05,3.08-17.86-1.89-24.59-1.72-2.34-5.6,1.6-6.27,3.08l-5.64,12.48c-5.95,13.17-2.75,23.69-6.84,34.04l-8.71-14.07-7.96-12.79c-2.53-4.06-7.29,1.12-2.75,16.43l7.89,26.63ZM123.35,206.68l-.61,1.98c1.36.21,1.88-1.44.61-1.98Z"/>
      </g>
      <path class="cls-2" d="M179.17,184.59l-7.89-26.63c-4.54-15.31.22-20.5,2.75-16.43l7.96,12.79,8.71,14.07c4.09-10.36.89-20.88,6.84-34.04l5.64-12.48c.67-1.49,4.55-5.42,6.27-3.08,4.97,6.73,2.21,16.54,1.89,24.59-.46,11.51-.9,21.83-3.16,33.17l-6.34,31.8c-2.12,10.64-4.39,20.02-14.49,25.87.08-3.35.12-6.53-1.06-9.67-1.87-4.99-.75-9.86-1.83-14.97l-5.28-24.97Z"/>
    </g>
  </g>
</svg>