<?xml version="1.0" encoding="UTF-8"?>
<svg id="Layer_2" data-name="Layer 2" xmlns="http://www.w3.org/2000/svg" viewBox="0 0 397.94 937.73">
  <defs>
    <style>
      .cls-1 {
        fill: #dd653a;
      }

      .cls-2 {
        fill: #84895b;
      }
    </style>
  </defs>
  <g id="Layer_1-2" data-name="Layer 1">
    <g>
      <g>
        <path class="cls-2" d="M59.23,191.78c2.06,5.95,5.49,10.94,8.55,16.31,1.08,1.89,1.14,3.46,2.84,5.11,3.52,3.42,6.53,8.1,11.24,10.25,3.15,1.44,7.49-7.1,7.76-13.06l.46-9.98-3.61-15.08-3.35-7.21-6.77-13.21-6.57-10.7c-3.6-5.85-7.91-11.41-8.99-18.8-.2-1.39,2.54-1.26,3.58-.61,4.55,2.82,8.05,5.88,11.76,9.64,1.69,1.72,3.91,2.81,4.95,4.98,1.27-1.67.44-2.76,0-4.04-.77-2.24.57-4.54.2-6.71l-1.67-9.76-.38-8.04v-36.43c0-6.01,1.27-11.36,3.14-17.05,1.03-3.14.88-7.18,3.89-9.56,1.13-.47,3.4,1.89,3.72,3.15l2.51,9.86c.9,3.56,2.28,6.44,2.31,10.19l.18,19.79v9.35s.55.25.55.25c3.68-5.89,4.79-14.2,12.47-16.3,1.98-.54,3.7,10.63.06,18.02l-9.63,19.51-2.57,8.24-4.72,13.37c-1.6,4.53-1.64,9.22,1.19,13.46,2.01,3.02,2.71,6.26,3.73,9.79.87,3.01,2.6,5.64,2.61,8.97,2.13-.12,2.46-1.46,3.48-2.5l9.96-10.08c.56-.57,1.69-.19,2.02.1s.67,1.2.35,1.96l-3.52,8.32-2.47,6.32-3.16,8.47c-2.62,7.01-4.01,14.46-2.57,21.92.68,3.51,1.96,6.09,3.5,9.16l2.23,4.18c-.05.9-.56,2.08-1.13,3.14-4.29,8.01-5.36,16.56-5.33,25.56l.1,26.15.25,16.06,2.87-8.26c2.2-6.32,4.53-12.22,7.52-18.22l3.23-6.5,16.96-27.93c4.15-6.84,7.02-13.83,10.17-21.14l5.53-12.85,3.79-8.2c.77-1.66,2.14-4.07,4.47-2.74,5.22,2.97,5.41,18.95,4.29,27.89-3.72,29.69-12.31,50.27-29.53,74.31l-4.56,6.36-13.09,21.23c-5.75,9.33-8.49,20.12-8.67,31.17l2.23,36.01c.31,5.07,1.26,9.62,3.13,14.21,1.37-15.49,4.7-37.26,12.72-48.73l9.25-13.21c.57-.82,1.53-1.13,2.22-.95.63.17,1.65.75,2,1.69,4.38,11.39,2.81,28.1-1.12,39.84l-10.11,30.21c-2.53,7.57-4.95,15.62-3.81,23.65l2.27,16.06c.25,1.76-2.49,2.9-4.08,3.34-5.75,1.6-9.19-8.7-11.33-16.38l-2.34-8.4-7.34-23.24c-4.55-11.31-10.73-21.46-19.29-30.07l-12.86-12.95-14.66-12.06-15.71-14.75c-7.22-8.07-12.82-17.34-16.54-27.63-.37-1.02-.31-2.26-.13-2.9.31-1.07,1.52-1.52,2.62-1.62,4.71-.44,7.75,1.79,11.51,3.74,11.68,6.08,22.45,13.06,31.66,22.54l13.48,13.9c1.46,1.5,1.96,4.1,4.54,4.99l-5.32-9.9c-7.55-14.05-16.4-26.65-26.71-38.78l-14.34-16.88c-10.11-11.9-17.54-25.2-23.87-39.47l-9.47-21.36c-2.48-5.6-5.27-15.18-3.3-17.39,2.23-2.5,7.59.6,10.8,5.19,10.04,14.36,21.67,26.69,35.15,37.83,16.51,13.63,27.81,35.68,33.81,56.1l6.99,23.78,5.42,18.82-.32-6.52-.36-19.21.41-32.96c.11-8.55-.22-16.96-1.85-25.49-3.94-20.64-19.96-38.34-36.16-51.35s-35.53-30.16-47.07-48.33c-2.54-4.01-5.32-7.51-6.69-12.31-.4-1.4-.26-3.77,1.44-3.96,3.93-.46,7.47,1.48,10.74,3.18l10.93,5.67c14.08,7.3,21.78,20.87,30.57,19.71,1.11,2.95,3.56,5.34,4.75,8.8ZM95.49,111.15l-1.02-.12c-.02-.5.17,1.21,1.02.12Z"/>
        <path class="cls-1" d="M54.48,182.98c1.11,2.95,3.56,5.34,4.75,8.8,2.06,5.95,5.49,10.94,8.55,16.31,1.08,1.89,1.14,3.46,2.84,5.11,3.52,3.42,6.53,8.1,11.24,10.25,3.15,1.44,7.49-7.1,7.76-13.06l.46-9.98-3.61-15.08-3.35-7.21-6.77-13.21-6.57-10.7c-3.6-5.85-7.91-11.41-8.99-18.8-.2-1.39,2.54-1.26,3.58-.61,4.55,2.82,8.05,5.88,11.76,9.64,1.69,1.72,3.91,2.81,4.95,4.98,1.27-1.67.44-2.76,0-4.04-.77-2.24.57-4.54.2-6.71l-1.67-9.76-.38-8.04v-36.43c0-6.01,1.27-11.36,3.14-17.05,1.03-3.14.88-7.18,3.89-9.56,1.13-.47,3.4,1.89,3.72,3.15l2.51,9.86c.9,3.56,2.28,6.44,2.31,10.19l.18,19.79v9.35c-.08.09-.3.28-.51.84-.02-.5.17,1.21,1.02.12l.04-.71c3.68-5.89,4.79-14.2,12.47-16.3,1.98-.54,3.7,10.63.06,18.02l-9.63,19.51-2.57,8.24-4.72,13.37c-1.6,4.53-1.64,9.22,1.19,13.46,2.01,3.02,2.71,6.26,3.73,9.79.87,3.01,2.6,5.64,2.61,8.97,2.13-.12,2.46-1.46,3.48-2.5l9.96-10.08c.56-.57,1.69-.19,2.02.1s.67,1.2.35,1.96l-3.52,8.32-2.47,6.32-3.16,8.47c-2.62,7.01-4.01,14.46-2.57,21.92.68,3.51,1.96,6.09,3.5,9.16l2.23,4.18c13.63-14.48,18.03-41.27,27.98-53.79l15.67-19.72,6.04-9.33c1.16-1.79,2.12-5.03.77-6.86-4.38-5.96-22.43,10.93-29.08,12.97-1.38.42-1.05-2.1-.56-3.02l3.66-6.94,3.92-7.37,4.21-7.2c1.96-3.36,4.26-6.45,6.2-9.87l6.03-10.59c2.55-4.48,3.14-10.3-.15-11.93-1.07-.53-2.85-.8-4.21-.01-8.61,4.97-16.18,10.5-24.63,16.64-.23-4.53,1.25-8.15,2.83-11.86l8.13-19.09,4.17-11.14c2.66-7.11,6.2-18.1,1.65-20.31-5.5-2.67-14.53,9.65-21.13,16.53l2.2-18.1c1.29-10.66.34-26.2-6.29-22.15-6.31,3.86-7.42,10.01-12.21,13.5-.16-2.55-.13-4.41-.79-6.53-.91-2.92-.72-5.74-1.31-8.65l-1.7-8.38-1.64-10.12c-.58-3.59-1.56-7.23-4.6-9.56-1.3-1-3.81-.05-4.76,1.15-5.65,7.16-7.99,15.48-9.19,24.37-.9,6.65-1.99,12.68-2.08,19.94-3.82-3.89-3.47-8.26-8.34-12.5-1.15-1-2.63-2.07-4.1-1.27-.82.44-1.73,1.89-1.88,3.31l-2.26,22.02-1.24,10.94c-1.96-4.76-5.31-8.45-9.23-12.15-2.13-2.01-4.97-3.5-7.78-1.63-2.48,1.65,4.01,19.21,7.28,28.5-4.19-2.22-6.27-5.75-9.54-8.6-5.37-4.68-11.81-8.93-14.33-4.39-1.46,2.63,2.23,14.12,6.25,20.46l8.25,13.01,4.45,8.58,3.83,8.52c1.52,3.39,2.15,6.92,2.64,11.23l-12.25-10.36-4.43-3.37-6.85-3.64c-1.07-.57-2.45-.61-3.38-.4-3.68.81-1.67,8.78,1.76,14.47l6.42,10.65,7.9,12.62c3.53,5.63,6.32,11.46,8.69,17.77l5.02,13.35Z"/>
      </g>
      <g>
        <path class="cls-1" d="M313.68,379.01l-4.48,3.1-9.55,10.18-6.43,6.63c-4.43,4.57-12.64,8.78-16.19,6.02-2.77-2.15-5.38-6.54-5.37-10.42.01-3.68-.02-8.48,1.39-11.83,3.53-8.39,8.12-15.92,13.8-22.78l20.14-24.29,5.3-7.13,8.07-11.07,4.02-6.53c1.56-2.54,3.36-5.35,3.01-8.4-1.15-.88-2.68.91-3.49,1.32l-16.79,8.54-8.12,5.52c-2.29,1.56-3.35,3.83-6.58,4.78-1.06.31-1.79,3.33-3.99,2.95-.46-4.92,2.03-9.16,3.47-13.57l3.86-11.86,2.57-12.74,1.57-6.58,4.08-14.19,2.57-11.62c.86-3.9,2.11-7.13,3.2-11.02l2.15-7.64c1.2-4.26,1.08-8.73-1.61-12.39-4.09,3.31-5.55,7.54-7.11,11.9l-7.06,19.73-3.52,14.14c-2.15-5.08-4.27-8.26-6.92-12.17s-5.14-9.43-8.02-8.06c-1.42.67-1.21,6.87-.12,12.02l6.02,28.45,1.06,8.35.54,16.49c.19,5.72-.61,13.59-2.89,17.86l-6.08,11.37c-4.17,6.04-6.01,12.81-9.09,19.43-3.75,8.04-7.61,15.64-8.73,24.63-4.89.72-7.77-4.05-12.71-5.18l-6.42-8.97-11.92-21.57-17.82-33.49c-3.98-7.48-10.8-19.79-7.15-23.97s17.98,6.39,24.85,13.41l9.7,9.91c3.21,3.28,5.62,7.17,10.64,9.16-2.66-16.49-5.7-31.93-11.29-46.89l-5.08-13.6c-1.88-5.03-3.55-9.91-3.68-15.39-.06-2.33,2.46-5.5,4.94-4.74,5.47,1.68,9.77,5.4,13.75,9.18l4.85,4.61c4.42,4.21,6.57,9.91,11.9,13.88.2-7.16-1.21-13.12-2.9-19.25l-9.04-32.89c-2.77-10.09-9.57-29.58-4.88-32.38,6.24-3.72,16.13,9.57,21.64,16.67l6.84,8.81c1.58,2.03,3.1,3.46,4.49,6.33,1.49-2.9.26-5.63-.4-8.72-2.59-12.17-5.94-40.2.51-44.14,2.16-1.32,5.24.21,6.25,2.24l6.25,12.62,4.24,8.2,4.16-16.49c3.11-12.32,6.42-28.22,15.93-35.11,9.48,2.23,7.47,20.46,6.93,33.24l-.43,10.15-.26,9.46c1.7.5,2.9-.51,3.7-1.76,3.39-5.25,7.56-9.14,12.23-13.08,1.98-1.67,3.12-3.26,5.67-3.18,1.84.06,5.15.71,5.49,3.4.65,5.15-.14,10.93-1.94,15.92l-13.05,36.15c6.44-5,11.23-10.19,17.89-14.16,5.69-3.39,13.4-10.11,16.91-5.52,3.18,4.16-4.85,15.98-9.94,23.11l-12.3,17.23-9.77,15.93c13.02-1.55,35.27-17.74,40.24-8.1,1.45,2.81-.37,5.91-2.38,7.77l-5.86,5.41-13.61,13.48c-6.72,8.45-13.05,17.02-17.94,27.93l22.59-9.17c3.96-1.61,9.35-2.02,13.05.33,2.26,1.43,1.59,5.43.25,6.99l-8.74,10.2-23.01,23.69-17.59,19.13-5.76,7.55-4.66,6.57ZM337.87,313.81l-.52.4.4.52.52-.4-.4-.52Z"/>
        <path class="cls-2" d="M313.68,379.01c-.12.45-.61.97-.32,2.14l8.33-4.42c13.89-7.37,51.02-21.29,59.55-12.32,1.26,1.33-.81,3.43-1.63,4.3l-11.9,12.57c-4.47,4.72-9.52,8.32-14.91,11.86l-13.8,9.03-32.06,15.36-13.78,6.95c-8.46,4.27-16.27,9.44-23.3,15.98-5.61,5.22-8.99,12.02-11.56,19.27l-14.06,39.71-6.2,15.26-4.95,11.12,14.84-15.42c10.81-11.23,20.13-23.22,32.54-32.97l29.37-23.07,7.13-4.76,9.73-6.71,12.67-8.34,21.62-12.74c10.14-5.97,20.89-9.98,32.34-13.07,2.75-.74,5.24,3.44,4.45,5.89-2.18,6.74-5.85,12.21-10.11,17.87-10.73,14.27-23.47,26.07-37.83,36.79-15.95,11.91-32.89,20.88-50.19,30.62l-30.57,19.49-11.09,8.28-19.58,15.34c-2.3,1.81-5.63,2.68-8.41,2.88-5.47.39-8.72-3.05-10.31-7.65-1.2-3.47-2.04-6.39-1.52-10.3l3.03-22.6c0-40.02-11.12-77.17-30.13-112.15l-20.91-38.49c-.61-1.13-.28-2.69.5-3.33,1.71-1.41,8.16.47,12.33,3.13l13.51,8.63c19.43,12.41,32.91,34.97,38.6,57.24l3.75,24.52,1.51,32.14,8.1-23.35c9.89-28.51,6.16-44.79-2.84-70.76,4.94,1.13,7.82,5.9,12.71,5.18,1.11-8.98,4.98-16.59,8.73-24.63,3.08-6.61,4.91-13.39,9.09-19.43l6.08-11.37c2.28-4.27,3.08-12.14,2.89-17.86l-.54-16.49-1.06-8.35-6.02-28.45c-1.09-5.16-1.3-11.35.12-12.02,2.88-1.36,5.42,4.23,8.02,8.06s4.77,7.09,6.92,12.17l3.52-14.14,7.06-19.73c1.56-4.36,3.02-8.59,7.11-11.9,2.69,3.66,2.81,8.13,1.61,12.39l-2.15,7.64c-1.09,3.89-2.34,7.12-3.2,11.02l-2.57,11.62-4.08,14.19-1.57,6.58-2.57,12.74-3.86,11.86c-1.44,4.41-3.93,8.65-3.47,13.57,2.19.38,2.93-2.63,3.99-2.95,3.23-.96,4.29-3.23,6.58-4.78l8.12-5.52,16.79-8.54c.81-.41,2.34-2.2,3.49-1.32.35,3.05-1.45,5.86-3.01,8.4l-4.02,6.53-8.07,11.07-5.3,7.13-20.14,24.29c-5.68,6.85-10.27,14.39-13.8,22.78-1.41,3.35-1.38,8.16-1.39,11.83-.01,3.88,2.6,8.27,5.37,10.42,3.55,2.76,11.76-1.45,16.19-6.02l6.43-6.63,9.55-10.18,4.48-3.1Z"/>
      </g>
      <g>
        <path class="cls-1" d="M304.92,734.67c-4.37-3.7-4.94-10.17-2.41-16.16,1.23-2.91,2.11-5.81,4.2-8.23,5.28-6.1,9.51-12.18,10.46-19.93l1.72-14.02c.69-5.6,1.81-11.08,4.88-16.02l4.55-7.33,18.89-20.82c3.3-3.64,6.23-10.35,5.86-15.57-.21-2.98-9.47,2.02-14.65,6.56-.61.53-.88,1.13-1.65.92-.27-.07-1.08-.44-.76-1.01,2.16-3.96,2.12-8.1,3.1-12.25,1.59-6.7,3.8-16.42-.19-19.65-3.04,2.45-3.72,6-5.21,9.37s-3.42,6.09-4.15,9.71l-2.16,10.66-2.35,12.95c-.21,1.18-.9,1.59-1.89,1.61-.68.02-1.11-.89-1.46-1.82l-3.67-9.93c-.84-2.28-4.03-5.47-6.29-4.3-2.45,4.67-2.67,10.07-2.71,15.03l-.15,22.34-.56,24.9c-.12,5.32-5.12,12.97-6.11,12.97-4.97.03-8.41-4.2-12.09-7.02l-2.94-7.34-2.92-22.2c-.71-12.21-2.12-24.11-6.61-35.57l-3.62-9.25c-2.4-6.14-5.53-16.02-1.89-17.54,6.67-2.79,17.15,8.6,22.49,16.19.6.85,1.5,1.23,2.14.62.3-.29.02-.96,0-1.56l-.62-22.66c-.19-7.15-2.87-22.45,2.51-24.36,5.01-1.78,9.45,5.28,12.99,10.9,1.24,1.98,1.73,4.34,4.18,5.48l1.18-28.3,1.34-9.12c.53-3.6,1.61-8.02,4.48-10.35,1.44-1.17,4.31,1.19,4.92,2.56,3.19,7.08,4.54,13.96,5.86,21.57,2.61-3.7,3.64-7.26,5.27-10.91l5.71-12.78c3.08-6.89,6.35-13.33,11.74-18.65.95-.94,3.04-.24,3.83.5,2.99,2.78,2.16,15.03.68,21.8l-3.03,13.88c-.66,3.04-2.29,5.64-1.85,8.66l14.71-9.71c2.87-1.89,9.7-4.56,11.76-3.44,3.15,1.72-.87,7.57-3.6,12.23l-10.62,18.12-8.83,15.63c1.38.83,2.41,0,3.43-.67l14.9-9.87c2.5-1.65,5.94-3.35,9.09-1.98,2.12.92,1.6,4.54.7,6.34l-3.27,6.55-19.79,31.3c-2.49,3.93-4.62,7.68-5.88,12.55l15.46-8.8c4.4-2.51,11.16-4.32,12.67-2.04,1.73,2.62-3.33,10.44-8.62,15.25l-29.98,27.25-10.29,10.13c2.19,1.04,3.83.37,5.67-.22,7.99-2.53,25.95-7.26,29.15-3.69,4.69,5.25-4.92,12.25-11.11,17.3l-25.17,20.53-23.6,18.56-4.86,2.76-3,1.37Z"/>
        <path class="cls-2" d="M304.92,734.67c-5.13,5.31-10.12,10.18-13.76,16.48l-8.53,14.76-23.1,38.71c3.26-2,5.31-5,8.05-7.62l7.69-7.34c7.68-7.33,16.41-12.91,25.54-18.25,12.71-7.44,25.51-13.07,40.14-15.34,11.33-1.76,22.24-2.56,33.69-1.24,2.38.27,6.01.17,7.31,2.53,1.2,2.17-1.32,4.52-3.05,5.52l-22.54,12.97-6.82,3.8-41.65,18.43-26.18,11.58-6.42,3.31c-11.67,6.01-22.25,13.58-32.12,22.28l-75.89,95.8c-1.9,2.01-2.96,5.89-6.14,6.58-3.26.71-7.72-2.17-9.21-5.04-.89-1.72,1.08-3.71,1.88-4.93l76.78-101.73c13.32-20.26,21.09-52.01,21.49-76.48.23-14.19-.96-27.78-3.37-41.84l-8.43-49.14c-1.3-12.27-.95-24.09.37-36.35.23-2.19,1.4-6.05,3.38-6.48,2.04-.03,2.98,3.05,3.65,4.57l14.64,33.2,2.75,7.83c3.26,9.28,5.93,18.28,7.29,28.06,2.45,17.56,2.44,37.52-1.51,54.82l-2.03,8.89-4.26,15.77-5.09,17.53,13.38-22.38c5.47-9.15,10.55-17.87,14.11-28.05,2.49-7.13,4.89-14.39,4.5-22.04l-1.34-26.18c3.68,2.82,7.13,7.04,12.09,7.02.99,0,5.99-7.65,6.11-12.97l.56-24.9.15-22.34c.03-4.96.26-10.35,2.71-15.03,2.26-1.17,5.45,2.03,6.29,4.3l3.67,9.93c.34.93.77,1.84,1.46,1.82.99-.03,1.67-.44,1.89-1.61l2.35-12.95,2.16-10.66c.73-3.62,2.68-6.38,4.15-9.71s2.17-6.91,5.21-9.37c3.99,3.22,1.78,12.95.19,19.65-.99,4.15-.94,8.29-3.1,12.25-.31.57.5.94.76,1.01.77.21,1.04-.38,1.65-.92,5.19-4.54,14.44-9.54,14.65-6.56.37,5.21-2.55,11.93-5.86,15.57l-18.89,20.82-4.55,7.33c-3.07,4.94-4.19,10.42-4.88,16.02l-1.72,14.02c-.95,7.75-5.18,13.83-10.46,19.93-2.09,2.42-2.97,5.32-4.2,8.23-2.53,6-1.96,12.47,2.41,16.16Z"/>
      </g>
      <g>
        <path class="cls-2" d="M97.81,731.95l-4.63,9.09c-4,10.36-5.53,21-7.53,31.87l-5.28,28.74-2.09,8.07c1.66-.23,1.98-1.48,2.56-2.66l10.67-21.94,7.35-12.31c11.65-19.53,28.8-36.17,49.63-45.65,13.78-6.28,28-10.84,42.96-13.45,7.31-1.27,15.65-.65,16.13,2.67.69,4.74-19.63,21.65-28.41,26.61l-23.93,13.52-10.86,6.81-5.33,3.53-9.58,6.59c-9.99,6.88-18.78,14.67-27.37,23.28-8.2,8.23-14.48,17.63-18.94,28.4-3.93,9.49-7.44,18.83-8.89,28.95l-2.58,18.07,13.45-22.82c4.14-7.02,9.47-13.12,15.94-18.31l34.28-27.42,7.92-6.85,12.24-12.56c5.09-5.22,10.45-9.55,16.2-14.04,1.09-.85,2.29-1.3,3.49-.65,2.51,1.35,1.69,7.23-.06,12.62-6.35,19.58-24.18,44.76-40.27,57.47l-14.58,11.53-15.75,11.7-11.49,8.91c-9.61,7.45-16.28,17.12-21.35,28.22-2.96,6.5-6.18,12.37-7.03,19.61-.2,1.7-.6,4.85-2.55,5.78-3.21,1.55-8.3.21-10.5-2.62-1.14-1.47-.64-4.02-.27-5.7l4.78-22.04,2.66-22.16c2.28-18.98,1.31-53.88-2.89-72.76-3.03-13.61-7.36-26.42-12.64-39.29l-10.75-26.22-9.65-24.05c-2.82-7.02-7.06-22-4.12-23.74,3.58-2.12,10.37,3.58,14.24,8.51l7.53,9.56c4.81,6.11,7.82,12.93,11.06,20.04,10.73,23.61,16.06,46.29,18.76,71.7,2.05-2.35,1.33-4.95,1.62-7.45l4.27-37.27c1-8.75,1.26-17.6-1.68-25.94l-10.97-31.06,8.04,6.31c2.32,1.91,5.72,5.51,8.62,2.66l6.22-6.11c2.4-2.35,3.3-6.2,3.65-9.51l1.19-11.4-4.34-22.12-.83-4.56-.37-11.68c-.2-6.3-1.07-14.72,2.81-19.22l1.98,7.54,6.56,9.55c.45.65,1.6.04,1.57-.46l-.08-1.63c1.19-14.42,12.27-30.07,23.63-39.28,1.31-1.06,2.58-1.79,2.74-3.35l.89.2,2.66,3.15c-.19,6.82-3.02,12.97-6.07,19.09l-8.85,17.8-4.13,9.01-4.75,10.54-2.55,7.07c-1.41,6.35-2.32,12.66-2.33,19.22,0,2.86,1.67,6.26-.12,9.02-1.46,2.25-1.68,4.64-2.56,7.11-2.18,6.08-5.49,11.75-5.69,18.27l-.19,6c-.1,3.34,1.12,6.18,2.9,8.73l3.61,5.17Z"/>
        <path class="cls-1" d="M124.98,591.56c-.16,1.56-1.43,2.29-2.74,3.35-11.36,9.22-22.44,24.86-23.63,39.28l.08,1.63c.03.5-1.13,1.12-1.57.46l-6.56-9.55-1.98-7.54c-3.88,4.5-3.01,12.92-2.81,19.22l.37,11.68.83,4.56,4.34,22.12-1.19,11.4c-.35,3.31-1.25,7.16-3.65,9.51l-6.22,6.11c-2.9,2.85-6.29-.75-8.62-2.66l-8.04-6.31-4.38-6.14c-4.08-8.12-8.9-15.31-14.27-22.61l-11.33-15.39-5.26-7.71c-3.47-5.09-6.23-10.74-2.63-13.13,3.91-2.6,16.79,6.49,23.5,11.5l7.83,5.85c-.14-5.53-3.27-9.22-5.29-13.68-3.14-6.92-6.74-13.02-11.23-19.15l-8.21-11.21c-4.29-5.86-6.18-15.65-2.83-17.36,3.81-1.95,10.69,2,15.68,5.86l18.45,14.29c1.44-1.85.06-3.64-.24-4.91l-2.51-10.61-4.3-13.59-8.62-20.44-5.2-15.15c-.99-2.89,1.65-8.26,4.94-8.26,3.75,0,10.54,10.99,14.37,15.99l5.58,7.27c1.63-2.02,1.45-4.48,1.66-6.99l.4-4.73c-.68-7.87-.1-15.24.86-23l.92-7.37c.86-6.94,1.58-14.56,5.51-20.47,1.59-2.38,6.05.09,7.1,1.92,4.03,7.07,3.99,17.26,7.96,25.6l14.47-26.49c2.85-5.23,10.89-12.7,14.7-10.42,2.53,1.51,2.59,4.84,2.09,7.25l-1.7,8.2-2.17,16.61c4.95-5.95,13.53-13.72,15.85-10.36,1.56,2.26-.85,13.97-2.9,20.83-1.93,6.46-5.04,12.12-5.99,19.57l14.29-14.42,5.19-4.87c1.96-1.84,6.66-3.94,8.91-1.32,2.41,2.81.47,7.83-.79,10.84l-8.99,21.45-3.24,6.16-14.37,24.12c-.73,1.22-2.28,1.85-2.41,3.2ZM83.27,587.18c5.31,10.43,3.21,17.24,5.01,18.13.34.17,1.12.15,1.21-.55l1.95-15.5,2.85-11.12,3.35-14.53,3.1-21.86c.73-5.15-.14-11.18-1.78-11.66-2.02-.59-5.87,6.84-6.52,11.53l-2.68,19.33-1.6,8.14c-.16.81-.47,1.37-.77,1.64-1.97,1.7-3.91-9.06-15.66-14.66-.68-.32-1.28-1.04-2.09-.66-.51.24-1.15,1.29-.73,2.19l7.8,16.68,6.57,12.9Z"/>
        <path class="cls-1" d="M97.81,731.95l-3.61-5.17c-1.78-2.56-3.01-5.39-2.9-8.73l.19-6c.2-6.52,3.52-12.19,5.69-18.27.88-2.47,1.1-4.86,2.56-7.11,1.79-2.76.11-6.16.12-9.02,0-6.56.91-12.87,2.33-19.22l2.55-7.07,4.75-10.54,4.13-9.01,8.85-17.8c3.05-6.13,5.88-12.27,6.07-19.09l-2.66-3.15c1.16-.09,1.55-1.55,2.43-2.23l19.22-14.95,7.91-4.03c1.5-.76,3.52-1.76,5.34-1.34,2.11.48,3.74,4.08,2.77,6.08-6.95,14.41-19.23,24.25-25.83,38.43-1.32,2.83-2.97,5.65-1.95,8.73l16.62-12.51c5.67-4.27,13.56-6.06,14.89-3.2,1.25,2.68-3.18,12.07-6.83,17.19l-8.1,11.36-16.98,21.5-6.31,9.97c-1.27,2.01-3.28,3.81-2.88,6.37l17.69-9.23c6.95-3.62,20.67-7.05,22.43-2.69.45,1.13.23,3.06-.74,4.16l-8.56,9.72-20.54,19.81-25.24,27.8c-1.96,2.16-4,3.59-6.41,5.08s-4.36,3.59-6.99,4.17Z"/>
        <path class="cls-2" d="M83.27,587.18l-6.57-12.9-7.8-16.68c-.42-.9.23-1.94.73-2.19.81-.39,1.41.33,2.09.66,11.74,5.61,13.69,16.37,15.66,14.66.3-.26.61-.82.77-1.64l1.6-8.14,2.68-19.33c.65-4.69,4.5-12.12,6.52-11.53,1.64.48,2.51,6.51,1.78,11.66l-3.1,21.86-3.35,14.53-2.85,11.12-1.95,15.5c-.09.7-.87.72-1.21.55-1.8-.89.3-7.7-5.01-18.13Z"/>
      </g>
    </g>
  </g>
</svg>